<?xml version="1.0" encoding="UTF-8"?>
<svg width="18px" height="18px" viewBox="0 0 18 18" version="1.1" xmlns="http://www.w3.org/2000/svg" xmlns:xlink="http://www.w3.org/1999/xlink">
    <!-- Generator: sketchtool 52 (66869) - http://www.bohemiancoding.com/sketch -->
    <title>95FF0CB6-55EF-4939-8C94-32A7AF926DF1</title>
    <desc>Created with sketchtool.</desc>
    <g id="Page-1" stroke="none" stroke-width="1" fill="none" fill-rule="evenodd">
        <g id="Main" transform="translate(-1144.000000, -4350.000000)" fill="#AFAFAF">
            <g id="Footer" transform="translate(0.000000, 4000.000000)">
                <path d="M1161.064,352.454 L1158.697,352.454 L1158.697,350.096 L1157.551,350.096 L1157.551,352.454 L1155.184,352.454 L1155.184,353.597 L1157.551,353.597 L1157.551,355.956 L1158.697,355.956 L1158.697,353.597 L1161.064,353.597 L1161.064,352.454 Z M1149.9,357.16 C1150.493,357.137 1150.988,356.925 1151.383,356.522 C1151.574,356.237 1151.694,355.943 1151.751,355.643 C1151.785,355.343 1151.8,355.09 1151.8,354.886 C1151.8,354 1151.573,353.106 1151.117,352.204 C1150.904,351.773 1150.625,351.422 1150.275,351.151 C1149.919,350.895 1149.511,350.759 1149.05,350.745 C1148.439,350.759 1147.93,351.004 1147.526,351.48 C1147.184,351.978 1147.021,352.535 1147.036,353.15 C1147.036,353.963 1147.275,354.808 1147.752,355.687 C1147.983,356.098 1148.281,356.446 1148.647,356.731 C1149.011,357.017 1149.43,357.16 1149.9,357.16 Z M1153.043,363.747 C1153.043,363.177 1152.856,362.68 1152.482,362.256 C1152.087,361.854 1151.47,361.361 1150.63,360.776 C1150.488,360.761 1150.318,360.754 1150.124,360.754 C1150.01,360.739 1149.715,360.754 1149.241,360.798 C1148.773,360.863 1148.297,360.97 1147.809,361.115 C1147.695,361.16 1147.532,361.225 1147.325,361.313 C1147.116,361.408 1146.905,361.543 1146.689,361.719 C1146.481,361.901 1146.305,362.128 1146.163,362.399 C1145.998,362.684 1145.914,363.027 1145.914,363.43 C1145.914,364.218 1146.272,364.869 1146.992,365.381 C1147.672,365.892 1148.606,366.155 1149.791,366.17 C1150.852,366.155 1151.664,365.922 1152.222,365.468 C1152.77,365.022 1153.043,364.449 1153.043,363.747 Z M1152.172,350.81 C1152.314,350.897 1152.471,351.026 1152.648,351.194 C1152.819,351.369 1152.984,351.585 1153.148,351.841 C1153.305,352.082 1153.442,352.367 1153.563,352.696 C1153.662,353.024 1153.711,353.408 1153.711,353.847 C1153.698,354.65 1153.519,355.293 1153.177,355.776 C1153.008,356.01 1152.832,356.225 1152.643,356.423 C1152.435,356.621 1152.213,356.821 1151.978,357.026 C1151.843,357.164 1151.719,357.321 1151.605,357.497 C1151.47,357.68 1151.404,357.892 1151.404,358.133 C1151.404,358.368 1151.472,358.56 1151.611,358.714 C1151.728,358.861 1151.841,358.988 1151.952,359.098 L1152.717,359.723 C1153.191,360.11 1153.609,360.537 1153.968,361.005 C1154.305,361.479 1154.48,362.101 1154.496,362.869 C1154.496,363.957 1154.011,364.922 1153.047,365.763 C1152.046,366.633 1150.603,367.081 1148.716,367.111 C1147.137,367.096 1145.96,366.761 1145.179,366.104 C1144.394,365.492 1144,364.758 1144,363.905 C1144,363.489 1144.127,363.026 1144.384,362.515 C1144.632,362.004 1145.082,361.556 1145.732,361.17 C1146.461,360.754 1147.229,360.476 1148.033,360.337 C1148.828,360.221 1149.488,360.156 1150.015,360.141 C1149.852,359.929 1149.708,359.701 1149.582,359.457 C1149.432,359.223 1149.358,358.94 1149.358,358.609 C1149.358,358.41 1149.386,358.245 1149.443,358.113 C1149.492,357.973 1149.54,357.845 1149.582,357.728 C1149.324,357.757 1149.083,357.771 1148.856,357.771 C1147.657,357.757 1146.742,357.38 1146.114,356.642 C1145.454,355.956 1145.125,355.156 1145.125,354.242 C1145.125,353.138 1145.591,352.138 1146.523,351.238 C1147.165,350.712 1147.832,350.369 1148.522,350.208 C1149.206,350.069 1149.847,350 1150.445,350 L1154.955,350 L1153.562,350.81 L1152.172,350.81 Z" id="Fill-1"></path>
            </g>
        </g>
    </g>
</svg>