<?xml version="1.0" encoding="UTF-8"?>
<svg width="17px" height="14px" viewBox="0 0 17 14" version="1.1" xmlns="http://www.w3.org/2000/svg" xmlns:xlink="http://www.w3.org/1999/xlink">
    <!-- Generator: sketchtool 52 (66869) - http://www.bohemiancoding.com/sketch -->
    <title>43BA4F4D-954C-497C-9954-C406FBD319FE</title>
    <desc>Created with sketchtool.</desc>
    <g id="Page-1" stroke="none" stroke-width="1" fill="none" fill-rule="evenodd">
        <g id="Main" transform="translate(-1101.000000, -4351.000000)" fill="#AFAFAF">
            <g id="Footer" transform="translate(0.000000, 4000.000000)">
                <path d="M1118,352.657314 C1117.37556,352.938385 1116.70308,353.128019 1115.99837,353.214016 C1116.71758,352.77624 1117.27112,352.083561 1117.53156,351.258285 C1116.85688,351.66372 1116.11101,351.958167 1115.31607,352.11649 C1114.68007,351.428955 1113.7738,351 1112.7694,351 C1110.84467,351 1109.28307,352.582343 1109.28307,354.534693 C1109.28307,354.811059 1109.31353,355.08081 1109.37271,355.340123 C1106.47317,355.192091 1103.90262,353.78527 1102.1834,351.647108 C1101.88195,352.168823 1101.71115,352.775946 1101.71115,353.423789 C1101.71115,354.650237 1102.32651,355.731887 1103.26207,356.365912 C1102.69051,356.347096 1102.1522,356.188479 1101.68259,355.923432 L1101.68259,355.968268 C1101.68259,357.680415 1102.88386,359.108845 1104.48106,359.433723 C1104.18693,359.514427 1103.87933,359.557646 1103.56191,359.557646 C1103.33545,359.557646 1103.1172,359.53589 1102.90437,359.493994 C1103.34805,360.898022 1104.63589,361.920282 1106.16263,361.948654 C1104.96869,362.896678 1103.46509,363.462052 1101.83009,363.462052 C1101.55017,363.462052 1101.27216,363.445147 1101,363.412806 C1102.54374,364.415074 1104.37735,365 1106.34588,365 C1112.76325,365 1116.27009,359.614978 1116.27009,354.944391 C1116.27009,354.790625 1116.26848,354.63833 1116.26057,354.486917 C1116.94111,353.988723 1117.53405,353.366017 1118,352.657314" id="Fill-1"></path>
            </g>
        </g>
    </g>
</svg>